<?xml version="1.0" encoding="utf-8"?>
<!-- Generator: Adobe Illustrator 20.1.0, SVG Export Plug-In . SVG Version: 6.00 Build 0)  -->
<svg version="1.1" xmlns="http://www.w3.org/2000/svg" xmlns:xlink="http://www.w3.org/1999/xlink" x="0px" y="0px"
	 viewBox="0 0 640 480" style="enable-background:new 0 0 640 480;" xml:space="preserve">
<style type="text/css">
	.st0{display:none;}
	.st1{display:inline;}
	.st2{fill:#FFFFFF;}
	.st3{fill:#D3031C;}
	.st4{display:inline;fill:none;}
</style>
<g id="Layer_1" class="st0">
	<g id="logo.psd_1_" class="st1">
		<g>
			<path class="st2" d="M930-707c-2.9,0.7-5.8,1.4-8.6,2.1c-8.3,2-15.2,6.5-17.8,14.6c-3.9,12.1-6.7,24.6-9.4,37.1
				c-3,14-5.4,28.1-8,42.2c-1.4,7.3-5.6,12.3-12.2,15.4c-14.2,6.6-28.8,8-43.7,2.9c-3-1-6.2-3.6-7.7-6.3
				c-10.1-18.2-19.7-36.7-29.5-55c-2.3-4.2-4.9-8.3-7.4-12.4c-8-13.2-20-17.2-34.4-13.9c-8,1.8-15.9,4.7-23.6,7.8
				c-13.7,5.5-20.2,16.7-19.3,30.8c1.1,17.1,4,34,6.2,51c1.1,8.6,3,17.1,3.5,25.7c0.2,3.9-1.1,8.5-3.3,11.7
				c-9.3,13.9-22.5,21.4-39.2,22.5c-6.3,0.4-11.4-2-16.2-6.4c-12.9-12-25.9-24.1-39.6-35.2c-6.6-5.4-14.3-9.4-20.8-15.3
				c-6.1-5.6-14.2-4.9-21.8-2.3c-15.7,5.6-27.3,16.2-36.9,29.4c-0.7,1-0.6,2.7-0.7,4.1c-0.1,0.8,0.6,1.9,0.3,2.4
				c-4.4,6.5-1,12.8,1.2,18.5c3.8,10.1,8.4,19.9,13.4,29.4c5.9,11.3,12.5,22.4,19.1,33.4c4.9,8.3,5.1,16.7,1.5,25.4
				c-4.7,11.2-12.6,19.5-23.1,25.3c-7.8,4.3-15.9,4.3-24.1,0.9c-15.2-6.4-30.3-12.9-45.6-18.9c-8.3-3.2-16.9-6-25.6-7.9
				c-10.6-2.3-20.1,1.1-26.5,10c-5.8,8-10.5,16.9-15.5,25.6c-0.6,1,0,3.5,0.9,4.2c2.4,2,5.3,4.3,3.4,7.3c-1.3,2.1-4.6,2.9-7,4.2
				c-0.4,0.2-0.9,0.4-2.2,1c2.7,4.9,4.8,10,8.1,14.2c5.5,7,11.4,14,17.9,20.1c11,10.2,22.4,20,34.2,29.2c11.7,9.1,15.2,19,10.6,35.5
				c-3.2,11.6-10.7,20.6-20.2,27.8c-1.6,1.2-4,2.1-5.9,2.1c-14.9-0.3-29.9-1-44.8-1.4c-12.3-0.3-24.6-1.1-36.8-0.3
				c-11.1,0.7-19,7.2-23.2,17.9c-3.9,9.8-6.4,19.9-6.6,30.6c-0.3,15.9,6.4,27.3,21.2,33.4c16.3,6.7,32.7,13.3,49,19.9
				c6.5,2.6,13,5.2,19.3,8.3c2.2,1.1,4.3,3.1,5.5,5.2c4.3,8,7,16.6,6.2,25.8c-0.2,1.8-2,4.7-3.4,5c-5.7,1-6.4,5.1-6.7,9.5
				c-0.3,3.5-0.1,7-0.1,10.5c0,3.3-1.2,5.4-4.8,6.5c-8.9,2.7-17.7,5.7-26.5,8.9c-4.8,1.7-7.6,1.2-9.1-4.3c-1.3-4.6-3.6-8.9-5.5-13.3
				c-2.2-5-5.9-7.7-11.5-6c-4.9,1.5-9.8,2.9-14.5,5c-5.1,2.2-6.3,6.5-4.6,11.6c1.4,4.3,2.8,8.5,4.4,12.7c1.3,3.6,2.9,7.1,4.4,10.6
				c5.2,12.2,5.2,12.2-6.2,19.6c-4.3,2.8-8.7,5.6-12.7,8.8c-2.7,2.2-4.4,1.5-6.3-0.7c-5-5.8-9.7-11.8-14.8-17.5
				c-3.3-3.7-6.9-7.2-10.7-10.5c-3.6-3.2-7.8-3.6-12-1c-3.1,1.9-6.3,3.8-8.9,6.3c-5.7,5.3-6.8,11.4-2.6,18
				c5.2,7.9,11,15.4,16.9,22.9c10.1,13,9.9,10.4-0.4,24.1c-5.8,7.7-7.5,7.7-15.9,3.4c-9.3-4.7-18.5-9.8-27.8-14.8
				c-8.6-4.6-13.5-3.6-19.3,4.3c-1.7,2.2-3.1,4.8-4.2,7.3c-3.4,7.8-2.3,12.9,4.7,17.8c5.1,3.6,10.8,6.5,16.3,9.6
				c2.7,1.6,5.6,2.9,8.3,4.5c11.5,6.9,13.3,12.8,6.5,24.2c-7,11.8-4.5,9.8-17.7,8.2c-7.7-0.9-15.3-3.2-23.1-4.2
				c-17.7-2.1-18.5,2.1-21.1,16.9c-1.9,10.7,0.1,13.2,10.8,16.3c10,2.9,20.4,4.7,30.6,7.1c8.6,2,9.8,3.6,10.8,12.4
				c0.2,1.5,0.2,3,0.1,4.5c-0.3,10.2-2,12.2-11.8,14.5c-10,2.3-20.2,4.3-30.1,7.2c-11.3,3.3-12.9,6.7-10.5,18.2
				c0,0.2,0.1,0.3,0.1,0.5c3.4,13.8,5.4,15.2,19.5,13.6c10.9-1.2,21.8-2.7,32.8-3.6c2-0.2,4.9,1.2,6.1,2.8
				c11.2,15.1,10.1,20.7-5.6,30.7c-7.4,4.7-15.1,9.2-22.4,14.1c-6.3,4.2-7.2,7.8-4.7,15c0.4,1.1,0.8,2.2,1.3,3.2
				c6.3,13.1,12.7,15,25.5,8.2c9.8-5.3,19.9-10.1,29.9-14.8c1.5-0.7,3.9-0.3,5.5,0.5c6.6,3.3,9.9,9.7,13.2,15.8
				c0.4,0.8-0.1,2.6-0.7,3.5c-6.2,8.7-12.4,17.3-18.7,25.9c-0.2,0.3-0.4,0.5-0.7,0.8c-11.4,12.8-6.4,28,10.7,31.4
				c3.1,0.6,7.6-0.8,9.9-2.9c5.3-4.7,9.7-10.4,14.5-15.7c4-4.4,7.8-9.2,12.2-13.1c4.3-3.9,8.4-3.9,13.2-0.5
				c3.8,2.7,7.2,5.9,10.5,9.2c1,1,1.4,3.4,1,4.9c-2.3,8.7-4.9,17.3-7.4,25.9c-0.6,1.9-1.4,3.7-2,5.6c-1.7,5.6-4.2,11.6,0.7,16.5
				c6,6,13.6,9.4,22.2,7.8c2.7-0.5,5.8-3.5,7.2-6.2c3.5-7,6.1-14.4,9-21.6c1.6-4,3.2-8,4.7-12.1c1.7-4.8,5.4-7.1,10-6.6
				c5.5,0.6,11.1,2,16.3,3.8c1.5,0.5,2.9,3.6,3.1,5.6c0.9,9.3,1.3,18.6,2.1,27.9c0.4,4.8,1.3,9.5,1.9,14.3c0.4,3.5,2.5,5.8,5.8,5.9
				c6.9,0.2,13.8,0,20.7-0.6c1.4-0.1,3.5-2.7,3.8-4.4c1.2-7.4,2-14.8,2.7-22.3c0.6-6.5,0.9-13,1-19.4c0.1-4.9,2.2-7.4,6.8-8.9
				c15.7-5.1,19.2-3.6,25.7,11.4c4.2,9.6,8.6,19.1,13,28.6c2,4.3,5.3,5.8,9.8,4.4c4.7-1.5,9.4-4.7,14.1-4.5c4.4,0.1,8.5,4.2,13,5.6
				c8.3,2.6,16.2,0.6,23.6-3.4c4.5-2.4,9-5.2,13-8.3c15.4-12.2,30.9-24.3,45.9-37c6.8-5.8,13.8-7.3,22.2-5.4
				c13.6,3.2,24.3,10.2,32.3,21.8c4,5.8,5.1,11.4,3.5,18.3c-5,20.7-9.6,41.5-13.8,62.3c-1.2,5.9-0.9,12.3-0.5,18.4
				c0.4,6.4,3.5,11.7,8.4,15.9c12.2,10.3,26.3,16.2,42.2,17.6c8.5,0.7,15.9-2.1,21.4-8.6c4.1-5,7.8-10.4,11.2-15.9
				c9.9-16,19.8-32,29.2-48.3c8.2-14.2,21.2-15.6,35.6-13.7c2.6,0.3,5.2,1.1,7.7,2c17.6,5.7,24.2,14.6,26.2,33c1.9,18,4.4,36,7,53.9
				c0.8,5.3,2.9,10.4,4.8,16.9c2.9-3.7,4.8-6.1,6.7-8.6c2-2.7,4.2-3.7,7.1-1.2c3.1,2.8,2.2,5.3-0.6,7.5c-3,2.3-6.2,4.4-10.3,7.3
				c2.8,2.2,4.8,4.6,7.3,5.6c14.7,6,30,7.1,45.5,4.4c11.6-2,19.2-9.6,22.3-20.6c3.7-13.1,6.3-26.5,9-39.9c2.3-10.9,4.2-21.9,6-32.9
				c1.2-7.1,4.9-12.2,11.3-15.4c10.4-5.2,21.1-8.7,33.1-6.8c10.6,1.7,18.9,6.5,24,15.9c7.3,13.5,14.2,27.1,21.4,40.6
				c3.4,6.3,6.6,12.7,10.4,18.8c9.5,15,17.7,18.9,34.9,14.6c9.9-2.5,19.5-6.7,28.8-11c10.6-4.9,15.8-14.3,14.9-25.6
				c-1.3-16.2-4.1-32.3-6.4-48.4c-1.3-9-3.2-18-4.4-27c-1.1-7.7,2.1-14,7.3-19.4c9.2-9.5,20.5-15.3,33.6-17c7.9-1,14.4,2.1,20,7.2
				c12.7,11.5,25.2,23.3,37.9,34.9c5.2,4.7,10.5,9.3,16.1,13.4c9.8,6.9,20.4,7.3,31.3,2.2c9.8-4.6,18-11.2,25.4-19.1
				c10.3-10.9,12.1-23.2,6-36.4c-5-10.7-10.9-21-16.5-31.3c-5.3-9.6-10.6-19.3-16.1-28.7c-5.6-9.5-5.5-19-0.7-28.6
				c4.5-9.2,11.3-16.4,20.1-21.6c8.3-5,16.8-5.4,25.8-1.6c18.7,7.9,37.5,15.6,56.4,23c5.5,2.1,11.6,3,17.5,3.8
				c9.1,1.3,17.1-1.6,22.6-9c6.6-8.9,13-18.1,18.2-27.9c6.5-12.3,4.1-24.2-5.9-33.8c-10.6-10.1-21.9-19.5-32.8-29.2
				c-6.4-5.6-12.6-11.4-19.1-16.9c-14-11.9-12.5-28.2-7.5-39.6c4.1-9.4,10.5-17.2,18.9-22.8c3.4-2.3,8.5-3,12.8-2.8
				c16.8,0.7,33.5,2.5,50.3,3.1c9.4,0.3,19-0.2,28.2-1.6c8.1-1.2,14.1-6.4,17.7-14.1c6.6-14,9.7-28.6,7.9-44.1
				c-1-7.9-5-13.8-11.6-17.7c-5-3-10.3-5.4-15.7-7.6c-20.8-8.6-41.6-16.9-62.3-25.5c-2.2-0.9-4.6-3-5.6-5.1
				c-6.6-13.5-8-27.7-3.6-42.2c2.7-8.8,8.1-14.7,17-17.3c17.5-5.3,35.1-10.3,52.4-16.2c8.3-2.8,16.2-6.9,23.8-11.2
				c7.6-4.3,10.7-11.6,11.1-20.1c0.6-13.7-2.2-26.8-7.2-39.5c-5-12.7-15.7-16.1-27.7-16.7c-11.6-0.6-23.3-0.4-35-0.3
				c-3.4,0-5.1-1.2-6-4.5c-1.3-5.1-2.8-10.3-4.6-15.3c-3-8.2,3.4-11.8,7.9-16.1c4.1-4,9.6-4.7,14.3-1.6c4.4,2.8,8.1,6.8,11.6,10.7
				c4.3,4.8,7.8,10.4,12.3,15.1c6.1,6.5,11,6.8,18.7,2.3c1-0.6,2-1.2,2.9-1.9c10-7.4,11-12.5,3.9-22.6c-5.1-7.2-10.6-14.1-16.1-21
				c-7-9-6.6-14.8,1.6-22.6c4.7-4.4,9.9-5.3,15.6-2.7c5.9,2.7,11.5,5.9,17.3,8.9c1.9,1,3.7,2.2,5.6,3.2c13.5,7.4,27.4,0.2,28.4-15.4
				c0.2-3.2-2.2-7.6-4.8-9.7c-5.3-4.2-11.5-7.3-17.3-10.8c-4.3-2.6-8.7-4.9-12.7-7.8c-5.1-3.8-6.6-8.7-4.3-14.6
				c1.7-4.3,4.1-8.4,6.9-12.1c1-1.3,4.1-1.5,6.2-1.3c11.9,1.1,23.8,2.6,35.8,3.7c7.9,0.7,10.7-1.6,12.4-9.4c0.4-1.9,1-3.7,1.5-5.6
				c0,289.7,0,579.3,0,869c-455.7,0-911.3,0-1367,0c0-395.7,0-791.3,0-1187C452.7-707,691.3-707,930-707z"/>
			<path class="st2" d="M1581-401c-10.6-3.3-21.1-6.5-31.7-9.7c-2.1-0.6-4.3-0.6-6.3-1.4c-3.9-1.5-10.4-2.6-11-5.1
				c-1.6-6.5-0.8-13.7-0.4-20.6c0.1-1.2,2.9-2.7,4.6-3.1c11.8-3.2,23.7-6.2,35.7-9.1c3.8-0.9,7.3-2,9.1-5.9
				C1581-437.7,1581-419.3,1581-401z"/>
			<path class="st2" d="M1280.9,45.8c7.1,3.2,10.2-1.6,8.6-6.7c-0.7-2.1-1.1-4.2-1.5-6.3c-1.6-7.2,1-11.6,8.1-13.5
				c1.4-0.4,4.1-0.3,4.4,0.4c0.7,1.4,0.9,4.3,0,5c-7.2,5.9-4.3,11.5,0,17.3c0.7,1,0.9,2.4,1.5,4.3c1.6-0.5,3.1-0.9,4.6-1.4
				c4.8-1.4,8.7,0.9,9.6,5.8c1.2,6.5,2,7.6,8.3,6.8c11.5-1.5,22.9-3.8,34.4-5.6c1.9-0.3,3.9,0.4,5.8,0.6c-1.2,1.8-2.1,4.6-3.7,5.2
				c-5.1,1.7-10.2,4.1-15.1,5.2c-5.4,1.3-9,3.9-12.9,6.7c-2.5,1.8-4.2,1.4-5.9-1c-0.8-1.1-1.3-2.6-2.3-3.2c-1-0.7-2.6-0.5-3.9-0.7
				c0,1.2-0.6,3,0,3.5c3.4,3.2,2.3,6.5,1.6,10.5c-0.7,3.7,0.4,7.9,1,11.8c0.9,4.9,1.9,9.8-1.6,15.2c-2.2-1.7-4.7-2.9-6.1-4.9
				c-3.2-4.5-7.1-4.6-11.4-2.4c-5.5,2.7-10.9,5.6-16.8,8.7c0.4,1.3,1,3.1,1.9,5.4c3.4-1.1,6.5-2.4,9.7-2.9c1.9-0.3,4.5-0.1,5.7,1
				c1.1,1,1.6,4.4,0.8,5.4c-1.1,1.3-3.7,1.4-5.7,1.8c-0.8,0.2-1.6-0.2-2.4-0.4c-2.7-0.5-6.7-2.5-8-1.4c-4.1,3.4-7.2,8-10.6,12.2
				c-0.7,0.8-0.7,2.2-1.1,3.2c-6.9,0.6-6.9,0.6-7.5-18.1c-3.8-0.6-6.2,1.2-8.1,4.3c-1.8,3-3.7,5.9-5.3,8.9c-0.5,0.9,0,2.3,0.1,3.5
				c0.3,4.1,0.9,8.1,0.9,12.2c-0.1,4.2-3.3,4.6-5.9,2.8c-3.3-2.3-5.8-5.5-9.1-8.7c-1.3-0.1-3.8,0.3-5.7-0.6c-1.8-0.8-3-3-4.4-4.6
				c1.8-1.2,3.4-3.2,5.4-3.5c2.5-0.5,5.3,0.4,7.9,0.6c2.6,0.2,5.2,0.5,8.3,0.7c-1.1-4.3-3.8-5.8-7.1-6.1c-3.5-0.4-7-0.2-10.5-0.3
				c-3.2-0.1-6.7,0.6-9.4-0.6c-6.4-2.8-9.2,0.9-11.9,5.3c-3.6,5.9-5.7,12-3.2,19c1,2.9-3.6,8.4-6.7,8.1c-2.4-0.2-4.8-0.8-3.4-4.4
				c0.7-1.7,0.8-3.7,1.2-5.5c-0.5-0.3-1-0.7-1.4-1c-4,3.3-8.4,6.3-11.9,10.1c-34.4,37.2-76.3,63.1-123,81.6
				c-53.3,21.2-108.7,29.1-165.9,25.9c-92.4-5.3-170.6-42.5-236.9-105.8c-56-53.5-92.1-118.3-108.2-194.1c-4.8-22.4-6.7-45.1-6.8-68
				c0-7.8,0-15.7,0.1-23.5c0.6-47.2,10.8-92.1,29.7-135.1c29.8-67.7,76.7-121.1,137.5-162.7c49.3-33.7,103.4-54.9,162.7-61.9
				c117.9-13.9,220.5,19.6,307,101.2c44.8,42.3,78.2,92.3,98,150.9c12.8,37.7,18.8,76.5,19.7,116.2c1.1,48.1-6.7,94.5-24,139.3
				c-2.4,6.1-2.6,11.9,1.7,17.4c1,1.2,0.6,3.7,0.4,5.5C1282.2,42.6,1281.4,44.2,1280.9,45.8z M1138.7,162.1
				c1.9-183.8,1.5-366.3-0.8-549.8c-9.3,0-17.8,0-26.2,0c-33.3-0.1-66.7-0.4-100-0.3c-20.3,0.1-40.6,0.8-61,1
				c-3.9,0-5.6,1.4-6.2,5.2c-1.3,9.1-3.4,18-4.4,27.1c-3.9,36.6-7.4,73.2-11.3,109.8c-0.6,5.5-2.1,10.9-3.2,16.4c-0.7,0-1.5,0-2.2,0
				c-6.2-25.8-6.9-52.4-11.2-78.5c-4.4-26.4-8-52.9-12.1-80.7c-12.6,0-24.5,0-36.5,0c-47.2,0.1-94.3,0.3-141.5,0.4c-0.3,0-0.7,0-1,0
				c-4.4-0.3-6.3,1.6-6.3,6.2c0.2,13.3,0.2,26.7,0.2,40c0.3,153.5,0.7,307,1,460.5c0,14.1,0,28.3,0,42.1
				c14.3,3.3,111.8,2.8,122.6-0.6c0-13.2,0-26.8,0-40.4c0-39,0.1-78,0-117c0-17.2-0.6-34.3-0.5-51.5c0-6.7,1.3-13.3,2.1-20.9
				c6.1,4,7.2,8.9,7.8,14.1c0.5,5,0.8,10,1.5,14.9c5.4,37.9,10.8,75.8,16.5,113.7c4.3,28,9.2,55.8,13.7,83.7c0.6,3.8,2.3,5,5.8,4.9
				c25.3-0.1,50.6-0.2,75.9-0.2c3.4,0,4-1.5,4.5-4.4c1.6-11.2,3.6-22.3,5.4-33.5c7.2-46.2,14.5-92.4,21.5-138.6
				c2.6-16.9,4.5-34,7.1-50.9c0.8-5.4,3.1-10.5,4.7-15.8c0.7,0.1,1.4,0.2,2.1,0.3c0.4,80.7,0.7,161.5,1.1,242.9
				C1052.2,162.1,1095.3,162.1,1138.7,162.1z M1278.6,49.3c-2.7-4.1-4.7-7.2-7.1-10.9c-2.1,4.6-3.8,8.2-6,12.9
				C1270.4,50.6,1273.9,50,1278.6,49.3z M1285.1,71.5c5.3,1,8.4-0.8,8.7-5.3c0.1-1.3-1.3-3.1-2.5-3.9c-0.5-0.3-2.8,0.9-3.4,2
				C1286.7,66.5,1286,69,1285.1,71.5z"/>
			<path class="st2" d="M508.3,114.7c0.2,30.4-23.5,55.4-53.2,55.2c-32.5-0.3-58.2-21.9-58.4-54.7c-0.2-30.3,24.4-55,55.3-55.1
				C484.3,59.9,508.1,83,508.3,114.7z"/>
			<path class="st2" d="M426.5-33.8c-1.9,13.5-4,16.8-10.8,17.1c-5.7,0.2-10.5-3.4-11.6-8.8c-1.3-6.4,1.6-9.9,12.8-14.4
				c-1.7-1.1-3-1.9-4.1-2.8c-1-0.9-2.3-1.9-2.5-3c-0.6-4.7-1.8-9.7-0.8-14.1c1.1-4.6,4-9.1,7-13c3.7-4.8,17-6.9,23.4-3.8
				c2.6,1.3,4.3,4.5,6.6,6.4c1.6,1.3,3.7,2.6,5.6,2.6c7.2-0.2,11.8,3.8,11.9,11c0.1,8-4.7,12.9-12,12.5c-1.3-0.1-2.9,0.4-4,1.2
				c-1.8,1.2-3.3,2.7-4.9,4.2C438.3-34.6,433.2-31.6,426.5-33.8z"/>
			<path class="st2" d="M478.7-83.6c0-8.4,5.6-14,14.1-14.1c7.9-0.1,14.4,6.6,14.3,14.8c0,8.3-6.6,14.3-15.8,14.6
				C484.5-68.2,478.7-75.3,478.7-83.6z"/>
			<path class="st2" d="M529-133c0.1,5.9-4.6,9.9-11.5,10c-5.7,0-10-4.2-10.2-10c-0.1-6.1,4.8-11.7,10.8-11.3
				C526.4-144,529-141.6,529-133z"/>
			<path class="st2" d="M1507.7-508.9c0,6.7-4.4,12.4-9.7,12.5c-5.4,0.1-10.6-5.6-10.7-11.7c-0.1-5.9,5.3-10.7,12.1-10.6
				C1504.4-518.6,1507.7-514.8,1507.7-508.9z"/>
			<path class="st2" d="M1224.3,193.5c1.7-0.3,3.4-0.6,5.3-0.9c0.1-0.6,0.4-1.3,0.2-1.8c-2.9-7.4,0.3-12.1,6.5-15.9
				c2.5-1.5,4.1-1.4,6,0.5c4.2,4.2,3.7,17.7-0.7,21.4c-0.4,0.3-0.9,0.7-1.3,0.7c-5.4-0.8-10.8-1.6-16.2-2.4
				C1224.2,194.5,1224.3,194,1224.3,193.5z"/>
			<path class="st2" d="M1449.6-476.7c-6.1,0.1-8.2-2.4-7-8.4c1.5-7.8,10.3-13,16.9-10.1c3.3,1.5,4.8,3.6,3.8,7.5
				C1461.5-481.2,1456.2-476.8,1449.6-476.7z"/>
			<path class="st2" d="M336.9,17.2c0-4.7,5-9,10.6-9.3c5.4-0.3,8.6,2.6,9.5,8.1c0.3,1.8,1.5,3.5,2.2,5.2c0.3,0.8,0.5,1.7,0.7,2.6
				c-0.8,0.2-1.5,0.4-2.3,0.5c-2,0.3-4.2,0.1-6.1,0.8C344.7,27.6,336.8,23.5,336.9,17.2z"/>
			<path class="st2" d="M1218.9,157.2c-0.2-4.4-0.5-7.8-0.5-11.3c0-3.3,1.6-5.5,5.1-5.5c3.3,0,7.2-0.6,8.9,3.5
				c2.8,6.6,0.8,10.4-6.6,12.2C1223.8,156.7,1221.6,156.8,1218.9,157.2z"/>
			<path class="st2" d="M377.9,127.2c6.4-0.6,7.5,5.6,11.1,9.9c1.5-3.2,3-6.1,4.4-9c0.5,0.1,1,0.2,1.4,0.3c0,5.1,0,10.2,0,16.2
				c-3.2-2-6.2-3.9-9.5-6c-3.2,5.3-3.4,13.1-12.5,14.8c0.5-1.8,0.6-3.7,1.2-3.8c4.5-1.3,4.8-4.9,5.3-8.6c0.1-0.8,0.4-1.8,1-2.2
				c3.3-2.5,1.4-4.4-0.6-6.4c-1.1-1.1-2.1-2.5-3.1-3.7C377.2,128.2,377.5,127.7,377.9,127.2z"/>
			<path class="st2" d="M1287.8,131c1.9-8.6,3.7-10.8,7.4-9.7c8,2.3,11,6.7,9,13C1298.8,133.2,1293.4,132.1,1287.8,131z"/>
			<path class="st2" d="M602-568.8c-7-0.4-11-2.7-13.5-7.2c-1.6-2.8-1.5-5.6,1.9-7.1c3.1-1.3,6.7-2.7,8.4,1.7
				C600.2-577.7,600.8-573.6,602-568.8z"/>
			<path class="st2" d="M1226.7,161.7c2.2,1.5,5.7,2.6,6.3,4.6c1.1,3.8-5.6,11.2-9,9.9c-2.3-0.8-4.4-4.9-4.8-7.8
				C1218.4,163.8,1222.2,162.8,1226.7,161.7z"/>
			<path class="st2" d="M1313.5,118.3c5.3,0,9.3,0,14.4,0c-2.3,5.8-4.3,11-6.4,16.5C1312.8,131,1318,123.4,1313.5,118.3z"/>
			<path class="st2" d="M1286.7,170.1c5.1,3.4,7,8.3,4.7,11.2c-1.9,2.4-6.4,2.5-9,0.2C1279.5,178.9,1280.3,176.6,1286.7,170.1z"/>
			<path class="st2" d="M294.1,63.1c-0.9,4.2-1.3,7.3-5.5,7.2c-3.1-0.1-5.1-1.6-5-4.8c0.2-3.2,1.8-6.1,5.4-5.6
				C290.9,60.2,292.6,62.2,294.1,63.1z"/>
			<path class="st2" d="M1200.3,176.2c-0.7-4.1-1.3-7.9-2.1-12.9c4.1,0.9,7.3,1.7,10.7,2.4C1208.4,171.6,1205.1,174.3,1200.3,176.2z
				"/>
			<path class="st2" d="M274.5,84.2c-0.8,4.5-2,7.9-5.8,7.4c-1.8-0.2-4.2-3.2-4.5-5.2c-0.8-4.5,3.3-4.8,6.3-4.9
				C272,81.5,273.5,83.5,274.5,84.2z"/>
			<path class="st2" d="M1278.1,190.4c1.3,2.2,2.1,3.2,2.7,4.4c1.4,3.1,1.4,6.3-1.4,8.6c-0.9,0.7-2.6,0.5-3.9,0.6
				c-0.2-2.8-0.8-5.6-0.6-8.3C1274.9,194.5,1276.2,193.3,1278.1,190.4z"/>
			<path class="st2" d="M1359.1,141.9c1.5-2.4,2.3-5.1,3.7-5.4c2.4-0.5,5.3,0.1,7.6,1c1,0.4,1.8,3,1.4,4.3c-0.3,1-2.5,1.9-3.9,1.8
				C1365.4,143.5,1363,142.7,1359.1,141.9z"/>
			<path class="st2" d="M1217.5,220.1c-3.9,5-8.2,3-13.3,1.3c1.4-1.6,2.6-4,4.4-4.8C1212.2,215,1214.8,217.2,1217.5,220.1z"/>
			<path class="st2" d="M402.2,168.8c-3.6-1-7.1-2.1-11.8-3.4c2.9-2.4,5.4-4.4,8.6-7c1.7,3.2,3.2,6.2,4.7,9.1
				C403.2,167.9,402.7,168.3,402.2,168.8z"/>
			<path class="st2" d="M391.7-1.2c0.7,5.3-1.9,6.1-4.4,5.7c-1.4-0.2-2.6-2.2-3.9-3.3c1.7-1.7,3.2-3.7,5.3-4.9
				C389.3-4,391.3-1.5,391.7-1.2z"/>
			<path class="st2" d="M586.6-477.9c-1.2-1.5-3.4-3.2-3.2-4.6c0.2-1.7,2.5-3,3.8-4.5c1.4,1.5,3.5,2.8,4.1,4.6
				c0.3,1.1-1.6,2.9-2.6,4.4C588-478,587.3-478,586.6-477.9z"/>
			<path class="st2" d="M1141.7,201.4c4.8,2.9,5.4,4.8,2.6,8.7c-0.6,0.8-2.6,1.5-3.4,1.1C1138.1,209.7,1138.5,205.9,1141.7,201.4z"
				/>
			<path class="st2" d="M1300.7-13.3c2.4-5.7,3.1-5.8,9.7-1.9C1309.2-9.7,1306.5-9.1,1300.7-13.3z"/>
			<path class="st2" d="M681.3-499.2c-3,1.9-4.7,3.7-6.4,3.9c-1.1,0.1-2.5-2.1-3.8-3.3c1.5-1.5,2.7-3.6,4.5-4.2
				C676.6-503.2,678.4-501.1,681.3-499.2z"/>
			<path class="st2" d="M390.3,180c-1.5-2.3-3-4.6-5.3-8c2.2-0.8,4.6-1.6,8-2.9c-0.5,4.8-0.9,7.9-1.2,11.1
				C391.4,180.1,390.8,180,390.3,180z"/>
			<path class="st2" d="M1421-547.6c-3.1,1.6-5,3.3-6.5,3.1c-1.3-0.2-3-2.6-3.1-4.1c0-1.2,2.4-3.6,3.3-3.4
				C1416.5-551.5,1418-549.7,1421-547.6z"/>
			<path class="st2" d="M805.6,335.8c-1.7,1.6-3.4,3.3-5.1,4.9c-1.1-1.8-2.2-3.7-3.2-5.5c2.4-0.6,4.7-1.2,7.1-1.8
				C804.7,334.3,805.2,335.1,805.6,335.8z"/>
			<path class="st2" d="M467.5-1.6c-1.3,0.8-2.6,2.4-3.9,2.3c-1.3-0.1-3.4-1.7-3.5-2.8c-0.2-1.3,1.6-4,2.3-3.9
				c1.8,0.2,3.4,1.6,5.1,2.5C467.5-2.8,467.5-2.2,467.5-1.6z"/>
			<path class="st2" d="M404.1,197.9c-5.6-1.4-5.7-2.3-1.6-8.6C406.9,191.3,406.9,191.3,404.1,197.9z"/>
			<path class="st2" d="M1320.5-0.6c-3.1,1.7-4.8,3-6.8,3.5c-0.6,0.2-1.8-1.6-2.7-2.5c1.5-1.3,2.7-3.1,4.4-3.8
				C1316.3-3.7,1317.9-2.1,1320.5-0.6z"/>
			<path class="st2" d="M954.5,365.9c1.5,1.4,2.4,2.3,3.3,3.2c-1.2,1.3-2.3,3.2-3.8,3.5c-0.9,0.2-2.3-2-3.5-3.1
				C951.6,368.5,952.8,367.4,954.5,365.9z"/>
			<path class="st2" d="M634.8-400.9c0,1.8,0,3.5,0,5.8c-2.4-0.6-4.3-1.1-6.3-1.7C628.5-401.8,631.3-401.7,634.8-400.9z"/>
			<path class="st2" d="M374.3,128.2c-0.5,2.2-1,4.1-1.6,6.6c-1.9-3.4-3.5-6.3-5.7-10.2C369.9,126,371.8,127,374.3,128.2z"/>
			<path class="st2" d="M305.9,68.9c1.7,0.4,3.3,0.8,6.5,1.5c-2.2,2.1-3.5,3.3-4.8,4.6c-1-1.6-2.1-3.1-3.1-4.7
				C305,69.8,305.5,69.4,305.9,68.9z"/>
			<path class="st2" d="M386.9,115c-0.6,1.5-1,3.2-2,4.4c-0.8,0.9-2.4,1.1-3.6,1.6c0-1.4-0.5-3.1,0.2-4c1-1.4,2.9-2.1,4.4-3.2
				C386.2,114.3,386.5,114.7,386.9,115z"/>
			<path class="st2" d="M564.6-539.2c-2.1,1.5-3.2,2.7-4.5,3c-0.7,0.1-2.6-1.9-2.4-2.2c0.6-1.3,1.6-2.7,2.9-3.3
				C561.2-542,562.6-540.5,564.6-539.2z"/>
			<path class="st2" d="M769.3,383.3c-1.8-2.1-3-3.2-3.7-4.7c-0.2-0.4,1.6-1.6,2.5-2.5c1,1.1,2.4,2,2.9,3.2
				C771.3,380.1,770.2,381.4,769.3,383.3z"/>
			<path class="st2" d="M1218.2,184.7c-1.9-2.2-3.8-4.3-5.7-6.5c0.5-0.4,0.9-0.8,1.4-1.2C1217,177.9,1219.5,179.6,1218.2,184.7z"/>
			<path class="st2" d="M395.9,180.9c0-1.5,0-2.9,0-5.6c1.9,0.8,3.4,1.4,5,2c-1.1,1.6-2.2,3.1-3.2,4.7
				C397.1,181.6,396.5,181.3,395.9,180.9z"/>
			<path class="st2" d="M928.5,429c-1.2-1.7-2.5-2.8-2.5-3.9c0-0.8,1.9-2.1,2.9-2c1,0,1.9,1.5,2.9,2.3
				C930.9,426.4,930,427.4,928.5,429z"/>
			<path d="M1278.6,49.3c-4.7,0.7-8.2,1.3-13.1,2c2.2-4.8,3.9-8.4,6-12.9C1273.9,42.1,1275.9,45.2,1278.6,49.3z"/>
			<path d="M1285.1,71.5c0.9-2.5,1.6-5,2.8-7.3c0.6-1.1,3-2.3,3.4-2c1.2,0.9,2.6,2.6,2.5,3.9C1293.5,70.7,1290.4,72.5,1285.1,71.5z"
				/>
		</g>
	</g>
</g>
<g id="Layer_4" class="st0">
</g>
<g id="Layer_2">
	<path class="st3" d="M413.9,347.7c-16.9,0-33.7,0-51,0c-0.1-31.7-0.3-63.2-0.4-94.7c-0.3,0-0.5-0.1-0.8-0.1c-0.6,2-1.5,4.1-1.8,6.1
		c-1,6.6-1.8,13.2-2.8,19.8c-2.8,18-5.6,36-8.4,54c-0.7,4.4-1.5,8.7-2.1,13.1c-0.2,1.1-0.4,1.7-1.7,1.7c-9.9,0-19.7,0-29.6,0.1
		c-1.4,0-2-0.5-2.3-1.9c-1.7-10.9-3.7-21.7-5.3-32.6c-2.2-14.8-4.3-29.5-6.4-44.3c-0.3-1.9-0.4-3.9-0.6-5.8c-0.2-2-0.7-3.9-3-5.5
		c-0.3,3-0.8,5.5-0.8,8.1c0,6.7,0.2,13.4,0.2,20.1c0,15.2,0,30.4,0,45.6c0,5.3,0,10.6,0,15.8c-4.2,1.4-42.2,1.5-47.8,0.3
		c0-5.4,0-10.9,0-16.4c-0.1-59.8-0.3-119.6-0.4-179.5c0-5.2,0-10.4-0.1-15.6c0-1.8,0.7-2.5,2.4-2.4c0.1,0,0.3,0,0.4,0
		c18.4-0.1,36.8-0.1,55.1-0.2c4.7,0,9.3,0,14.2,0c1.6,10.8,3,21.2,4.7,31.5c1.7,10.2,2,20.6,4.4,30.6c0.3,0,0.6,0,0.9,0
		c0.4-2.1,1-4.2,1.3-6.4c1.5-14.3,2.9-28.5,4.4-42.8c0.4-3.5,1.2-7,1.7-10.6c0.2-1.5,0.9-2,2.4-2c7.9-0.1,15.8-0.4,23.8-0.4
		c13,0,26,0.1,39,0.1c3.3,0,6.6,0,10.2,0C414.5,204.9,414.7,276.1,413.9,347.7z M567.1,113.9c-0.2,2.7-0.5,5.5,0.2,8
		c0.2,1,2.8,1.4,4.3,2c0.8,0.3,1.7,0.3,2.5,0.5c4.1,1.2,8.2,2.5,12.4,3.8c0,1.6,0,3.1,0,4.7c-0.2,0.7-0.4,1.4-0.6,2.2
		c-0.7,3-1.8,4-4.8,3.7c-4.7-0.4-9.3-1-13.9-1.5c-0.8-0.1-2,0-2.4,0.5c-1.1,1.4-2,3-2.7,4.7c-0.9,2.3-0.3,4.2,1.7,5.7
		c1.6,1.1,3.3,2,5,3c2.3,1.4,4.7,2.6,6.7,4.2c1,0.8,2,2.5,1.9,3.8c-0.4,6.1-5.8,8.9-11.1,6c-0.7-0.4-1.4-0.9-2.2-1.3
		c-2.2-1.2-4.4-2.4-6.7-3.5c-2.2-1-4.3-0.7-6.1,1.1c-3.2,3-3.4,5.3-0.6,8.8c2.1,2.7,4.3,5.4,6.3,8.2c2.8,3.9,2.4,5.9-1.5,8.8
		c-0.4,0.3-0.7,0.5-1.1,0.7c-3,1.8-4.9,1.6-7.3-0.9c-1.7-1.8-3.1-4-4.8-5.9c-1.4-1.5-2.8-3.1-4.5-4.2c-1.8-1.2-4-1-5.6,0.6
		c-1.7,1.7-4.2,3.1-3.1,6.3c0.7,1.9,1.3,3.9,1.8,6c0.3,1.3,1,1.7,2.3,1.7c4.5,0,9.1-0.1,13.6,0.1c4.7,0.2,8.9,1.6,10.8,6.5
		c1.9,5,3.1,10,2.8,15.4c-0.2,3.3-1.4,6.2-4.3,7.8c-3,1.7-6.1,3.3-9.3,4.4c-6.7,2.3-13.6,4.3-20.4,6.3c-3.5,1-5.6,3.3-6.6,6.8
		c-1.7,5.7-1.2,11.2,1.4,16.5c0.4,0.8,1.3,1.6,2.2,2c8.1,3.4,16.2,6.6,24.3,10c2.1,0.9,4.2,1.8,6.1,3c2.6,1.5,4.1,3.8,4.5,6.9
		c0.7,6.1-0.5,11.7-3.1,17.2c-1.4,3-3.7,5-6.9,5.5c-3.6,0.5-7.3,0.8-11,0.6c-6.5-0.2-13.1-0.9-19.6-1.2c-1.7-0.1-3.7,0.2-5,1.1
		c-3.3,2.2-5.8,5.2-7.4,8.9c-2,4.4-2.6,10.8,2.9,15.4c2.5,2.1,5,4.4,7.4,6.6c4.3,3.8,8.7,7.4,12.8,11.4c3.9,3.7,4.8,8.4,2.3,13.2
		c-2,3.8-4.5,7.4-7.1,10.9c-2.1,2.9-5.3,4-8.8,3.5c-2.3-0.3-4.7-0.7-6.8-1.5c-7.4-2.9-14.7-5.9-22-9c-3.5-1.5-6.8-1.3-10.1,0.6
		c-3.4,2-6.1,4.8-7.9,8.4c-1.8,3.7-1.9,7.5,0.3,11.2c2.2,3.7,4.2,7.4,6.3,11.2c2.2,4,4.5,8,6.4,12.2c2.4,5.1,1.7,9.9-2.3,14.2
		c-2.9,3.1-6.1,5.7-9.9,7.4c-4.2,2-8.4,1.8-12.2-0.9c-2.2-1.6-4.3-3.4-6.3-5.2c-5-4.5-9.8-9.1-14.8-13.6c-2.2-2-4.7-3.2-7.8-2.8
		c-5.1,0.7-9.5,2.9-13.1,6.6c-2,2.1-3.3,4.6-2.9,7.6c0.5,3.5,1.2,7,1.7,10.5c0.9,6.3,2,12.6,2.5,18.9c0.4,4.4-1.7,8.1-5.8,10
		c-3.6,1.7-7.4,3.3-11.2,4.3c-6.7,1.7-9.9,0.2-13.6-5.7c-1.5-2.4-2.7-4.9-4-7.3c-2.8-5.3-5.5-10.6-8.3-15.8c-2-3.7-5.2-5.6-9.4-6.2
		c-4.7-0.7-8.8,0.6-12.9,2.6c-2.5,1.2-4,3.2-4.4,6c-0.7,4.3-1.5,8.6-2.4,12.8c-1.1,5.2-2.1,10.4-3.5,15.5c-1.2,4.3-4.2,7.2-8.7,8
		c-6,1.1-12,0.6-17.7-1.7c-1-0.4-1.8-1.3-2.8-2.2c1.6-1.1,2.8-1.9,4-2.9c1.1-0.8,1.4-1.8,0.2-2.9c-1.1-1-2-0.6-2.8,0.5
		c-0.7,1-1.5,1.9-2.6,3.4c-0.7-2.5-1.6-4.5-1.9-6.6c-1-7-2-14-2.7-21c-0.8-7.2-3.3-10.6-10.2-12.8c-1-0.3-2-0.6-3-0.8
		c-5.6-0.7-10.7-0.2-13.9,5.3c-3.7,6.3-7.5,12.6-11.4,18.8c-1.3,2.1-2.8,4.3-4.4,6.2c-2.1,2.6-5,3.6-8.3,3.4
		c-6.2-0.5-11.7-2.8-16.4-6.8c-1.9-1.6-3.1-3.7-3.3-6.2c-0.1-2.4-0.3-4.9,0.2-7.2c1.6-8.1,3.4-16.2,5.4-24.3
		c0.6-2.7,0.2-4.9-1.3-7.1c-3.1-4.5-7.3-7.3-12.6-8.5c-3.3-0.8-6-0.2-8.6,2.1c-5.8,4.9-11.9,9.7-17.9,14.4c-1.6,1.2-3.3,2.3-5.1,3.3
		c-2.9,1.5-6,2.3-9.2,1.3c-1.8-0.6-3.4-2.1-5.1-2.2c-1.8-0.1-3.6,1.2-5.5,1.8c-1.7,0.6-3,0-3.8-1.7c-1.7-3.7-3.4-7.4-5.1-11.1
		c-2.5-5.9-3.9-6.4-10-4.5c-1.8,0.6-2.6,1.6-2.7,3.5c0,2.5-0.2,5.1-0.4,7.6c-0.3,2.9-0.6,5.8-1.1,8.7c-0.1,0.7-0.9,1.7-1.5,1.7
		c-2.7,0.2-5.4,0.3-8.1,0.2c-1.3,0-2.1-1-2.2-2.3c-0.2-1.9-0.6-3.7-0.7-5.6c-0.3-3.6-0.4-7.3-0.8-10.9c-0.1-0.8-0.6-2-1.2-2.2
		c-2.1-0.7-4.2-1.2-6.4-1.5c-1.8-0.2-3.2,0.7-3.9,2.6c-0.6,1.6-1.2,3.1-1.8,4.7c-1.1,2.8-2.1,5.7-3.5,8.4c-0.5,1-1.7,2.2-2.8,2.4
		c-3.3,0.6-6.3-0.7-8.6-3.1c-1.9-1.9-0.9-4.2-0.3-6.4c0.2-0.7,0.6-1.5,0.8-2.2c1-3.4,2-6.7,2.9-10.1c0.2-0.6,0-1.5-0.4-1.9
		c-1.3-1.3-2.6-2.5-4.1-3.6c-1.9-1.3-3.4-1.3-5.1,0.2c-1.7,1.6-3.2,3.4-4.8,5.1c-1.9,2.1-3.6,4.3-5.7,6.1c-0.9,0.8-2.7,1.4-3.9,1.1
		c-6.7-1.4-8.6-7.3-4.2-12.3c0.1-0.1,0.2-0.2,0.3-0.3c2.4-3.4,4.9-6.7,7.3-10.1c0.3-0.4,0.4-1,0.3-1.4c-1.3-2.4-2.6-4.9-5.1-6.2
		c-0.6-0.3-1.6-0.4-2.1-0.2c-3.9,1.8-7.8,3.7-11.7,5.8c-5,2.7-7.5,1.9-9.9-3.2c-0.2-0.4-0.4-0.8-0.5-1.3c-1-2.8-0.6-4.2,1.8-5.9
		c2.9-1.9,5.8-3.6,8.7-5.5c6.1-3.9,6.6-6.1,2.2-12c-0.5-0.6-1.6-1.2-2.4-1.1c-4.3,0.4-8.5,0.9-12.8,1.4c-5.5,0.6-6.3,0.1-7.6-5.3
		c0-0.1,0-0.1-0.1-0.2c-0.9-4.5-0.3-5.8,4.1-7.1c3.9-1.1,7.8-1.9,11.7-2.8c3.8-0.9,4.5-1.7,4.6-5.6c0-0.6,0-1.2,0-1.8
		c-0.4-3.4-0.9-4-4.2-4.8c-4-0.9-8-1.6-11.9-2.8c-4.2-1.2-5-2.2-4.2-6.4c1-5.8,1.3-7.4,8.2-6.6c3,0.4,6,1.3,9,1.6
		c5.1,0.6,4.1,1.4,6.9-3.2c2.7-4.5,2-6.8-2.5-9.4c-1.1-0.6-2.2-1.1-3.3-1.8c-2.1-1.2-4.4-2.3-6.4-3.7c-2.7-1.9-3.2-3.9-1.8-6.9
		c0.4-1,1-2,1.6-2.9c2.3-3.1,4.2-3.5,7.5-1.7c3.6,1.9,7.2,3.9,10.8,5.8c3.3,1.7,3.9,1.7,6.2-1.3c4-5.3,4.1-4.3,0.2-9.4
		c-2.3-2.9-4.6-5.8-6.6-8.9c-1.7-2.6-1.2-4.9,1-7c1-1,2.3-1.7,3.5-2.5c1.6-1,3.3-0.9,4.7,0.4c1.4,1.3,2.9,2.6,4.2,4.1
		c2,2.2,3.9,4.6,5.8,6.8c0.7,0.8,1.4,1.1,2.4,0.3c1.5-1.3,3.3-2.3,5-3.4c4.4-2.9,4.4-2.9,2.4-7.6c-0.6-1.4-1.2-2.7-1.7-4.1
		c-0.6-1.6-1.2-3.3-1.7-5c-0.7-2-0.2-3.7,1.8-4.5c1.8-0.8,3.7-1.4,5.6-1.9c2.2-0.7,3.6,0.4,4.5,2.3c0.8,1.7,1.7,3.4,2.2,5.2
		c0.6,2.1,1.7,2.3,3.5,1.7c3.4-1.2,6.9-2.4,10.3-3.5c1.4-0.4,1.9-1.3,1.9-2.5c0-1.4-0.1-2.7,0-4.1c0.1-1.7,0.4-3.3,2.6-3.7
		c0.6-0.1,1.3-1.2,1.3-1.9c0.3-3.6-0.8-6.9-2.4-10.1c-0.4-0.8-1.3-1.6-2.1-2c-2.4-1.2-5-2.2-7.5-3.2c-6.4-2.6-12.7-5.1-19.1-7.8
		c-5.8-2.4-8.4-6.8-8.3-13c0.1-4.1,1-8.1,2.6-11.9c1.7-4.1,4.7-6.7,9-7c4.8-0.3,9.6,0,14.4,0.1c5.8,0.2,11.6,0.4,17.5,0.5
		c0.8,0,1.7-0.3,2.3-0.8c3.7-2.8,6.6-6.3,7.9-10.9c1.8-6.4,0.5-10.3-4.1-13.8c-4.6-3.6-9-7.4-13.3-11.4c-2.6-2.4-4.8-5.1-7-7.8
		c-1.3-1.6-2.1-3.6-3.2-5.6c0.5-0.2,0.7-0.3,0.9-0.4c0.9-0.5,2.2-0.8,2.7-1.6c0.7-1.2-0.4-2.1-1.3-2.9c-0.4-0.3-0.6-1.3-0.3-1.6
		c1.9-3.4,3.8-6.8,6-10c2.5-3.4,6.2-4.8,10.3-3.9c3.4,0.7,6.7,1.8,10,3.1c6,2.3,11.9,4.9,17.8,7.4c3.2,1.3,6.3,1.3,9.4-0.3
		c4.1-2.2,7.2-5.5,9-9.9c1.4-3.4,1.3-6.7-0.6-9.9c-2.5-4.3-5.1-8.6-7.4-13c-1.9-3.7-3.7-7.6-5.2-11.5c-0.9-2.2-2.2-4.7-0.5-7.2
		c0.1-0.2-0.1-0.6-0.1-0.9c0-0.5,0-1.2,0.3-1.6c3.7-5.1,8.3-9.3,14.4-11.5c3-1,6.1-1.3,8.5,0.9c2.5,2.3,5.5,3.9,8.1,6
		c5.3,4.3,10.4,9,15.4,13.7c1.8,1.7,3.8,2.7,6.3,2.5c6.5-0.4,11.7-3.4,15.3-8.8c0.8-1.3,1.4-3.1,1.3-4.6c-0.2-3.3-0.9-6.7-1.4-10
		c-0.9-6.6-2-13.2-2.4-19.9c-0.4-5.5,2.2-9.9,7.5-12c3-1.2,6.1-2.3,9.2-3.1c5.6-1.3,10.3,0.3,13.4,5.4c1,1.6,2,3.2,2.9,4.8
		c3.8,7.1,7.6,14.3,11.5,21.4c0.6,1.1,1.8,2.1,3,2.5c5.8,2,11.5,1.4,17-1.1c2.6-1.2,4.2-3.1,4.8-6c1-5.5,1.9-11,3.1-16.4
		c1-4.9,2.1-9.7,3.7-14.5c1-3.1,3.7-4.9,6.9-5.7c1.1-0.3,2.2-0.5,3.4-0.8c2.6,0,5.2,0,7.8,0c0.4,0.1,0.8,0.3,1.3,0.4
		c6.3,0.4,10.1,3.6,11.5,9.7c0.1,0.6,0.4,1.2,0.5,1.9c1.2,8.3,2.5,16.7,3.5,25c0.4,3.2,1.3,5.6,4,7.3c3,1.9,6.2,3.2,9.8,3.6
		c5.7,0.7,10.2-1,13.2-6.4c3.5-6.3,7.4-12.5,11.3-18.7c1.2-1.9,2.4-3.7,3.9-5.4c2.4-2.8,5.6-3.9,9.3-3.3c5.6,0.9,10.5,3.2,15,6.5
		c2.3,1.7,3.5,4.2,3.7,7c0.2,2.1,0.2,4.2-0.1,6.2c-1.3,6.5-2.8,13-4.2,19.6c-0.4,2.1-0.7,4.1-1,5.8c3.4,1.5,6.5,2.7,9.5,4.1
		c2.5,1.2,5,2.5,7.5,3.7c0.5,0.3,1.5,0.3,1.9,0c1.4-1,2.7-2,3.8-3.3c1.9-2.1,2.1-3.8,0.5-6.2c-1.5-2.2-3.4-4.2-5.1-6.4
		c-1.4-1.9-2.7-3.8-3.9-5.7c-0.3-0.5-0.3-1.7,0-2.1c1.3-1.7,2.7-3.4,4.3-4.7c2.1-1.7,4.1-1.7,6.2,0.1c1.6,1.5,3,3.2,4.5,4.8
		c1.9,2,3.7,4.2,5.7,6.1c0.5,0.5,1.8,0.9,2.4,0.6c1.9-0.8,3.7-1.8,5.5-2.9c1.3-0.8,1.8-2,1.2-3.7c-0.7-2-1.4-4.1-1.9-6.1
		c-0.8-3.1-1.6-6.3-2.1-9.5c-0.1-0.7,0.4-1.8,1-2.3c2-1.7,4.6-2.3,7.2-2.5c1.4-0.1,2.3,0.3,2.8,1.5c1.6,3.5,3.3,7,4.8,10.6
		c2.4,5.9,4.3,6.8,10.1,4.4c0.2-0.1,0.4-0.2,0.5-0.2c1.4-0.4,1.9-1.4,1.9-2.7c0.1-3.6,0.3-7.1,0.4-10.7c0.3-6.9,1.8-8.2,8.8-7.4
		c0.4,0,0.8,0.1,1.2,0.2c1.5,0.3,2.4,1.1,2.5,2.8c0.3,4.7,0.8,9.4,1,14.2c0.2,2.9,0.4,3.4,3.1,4.3c0.9,0.3,1.9,0.5,2.8,0.7
		c2.8,0.4,3.9-0.1,5.2-2.6c0.6-1,1-2.1,1.5-3.2c1.2-2.9,2.4-5.9,3.6-8.8c0.7-1.5,1.6-3,3.4-3.2c3.2-0.3,6,0.9,8.3,3.2
		c1.9,1.9,0.6,4,0.1,6.1c-0.1,0.5-0.4,1-0.5,1.5c-1,3.2-2.1,6.4-3.1,9.6c-0.4,1.4,0,2.5,1,3.5c3.9,4,7.1,4,10.8-0.2
		c0.3-0.3,0.5-0.6,0.8-0.9c2-2.3,4.1-4.6,6.1-6.8c1.4-1.5,3.2-2.1,5.3-1.5c5.6,1.7,7.2,7.1,3.4,11.4c-0.3,0.4-0.7,0.8-1,1.2
		c-2,2.6-4.1,5.2-5.9,8c-1.5,2.3-1.2,3.8,0.8,5.7c1.1,1,2.2,2,3.5,2.8c0.6,0.4,1.8,0.7,2.4,0.4c2.1-0.9,4-2.1,6-3.2
		c2.4-1.3,4.7-2.8,7.2-3.8c2.9-1.2,4.7-0.3,6.1,2.4c0.6,1.1,1.1,2.4,1.5,3.6c1.2,3.1,1.1,3.5-1.6,5.3c-2.6,1.8-5.3,3.2-7.9,5
		c-1.8,1.2-3.5,2.4-5.1,3.9c-1.8,1.8-1.6,3.4,0.3,5.2c0.4,0.4,0.9,0.8,1.1,1.3c0.6,2,2,2.6,3.9,2.5c1.8-0.1,3.6-0.2,5.5-0.4
		c-0.2,0.7-0.4,1.2-0.5,1.7c-0.6,2.5,0,3.4,2.5,3.7c3.6,0.5,6-1.1,7.1-4.4c0.2-0.5,0.3-1,0.6-1.4c0.7-1.1,1.5-1,2.2-0.1
		c0.4,0.7,0.5,1.6,0.9,2.3c0.4,0.8,0.8,1.6,1.2,2.5c0,1.6,0,3.1,0,4.7c-0.7,1.5-2.1,1.9-3.5,2.3c-4.6,1.1-9.3,2.3-13.9,3.5
		C568.2,112.8,567.1,113.4,567.1,113.9z M190.2,74.4c-0.8-0.5-1.3-1.1-1.6-1c-0.5,0.2-0.9,0.8-1.1,1.3c-0.1,0.1,0.7,0.9,0.9,0.9
		C189,75.4,189.4,74.9,190.2,74.4z M77.1,317.3c-0.4-0.3-1-1-1.6-1c-1.2,0-2.7,0.1-2.4,1.9c0.1,0.8,1.1,2,1.8,2
		C76.4,320.4,76.8,319.1,77.1,317.3z M84.7,309.1c-0.6-0.4-1.2-1.2-2-1.3c-1.4-0.2-2,0.9-2.1,2.2c-0.1,1.2,0.7,1.8,1.9,1.9
		C84.2,312,84.4,310.8,84.7,309.1z M91.9,311.9c-1.2-0.3-1.9-0.4-2.5-0.6c-0.2,0.2-0.4,0.4-0.5,0.5c0.4,0.6,0.8,1.2,1.2,1.8
		C90.5,313.2,91.1,312.8,91.9,311.9z M110.4,293.8c-0.1-0.3-0.1-0.7-0.3-1c-0.3-0.7-0.8-1.3-0.9-2c-0.4-2.1-1.6-3.3-3.7-3.1
		c-2.2,0.1-4.1,1.8-4.1,3.6c0,2.5,3,4.1,5.7,3.1c0.7-0.3,1.6-0.2,2.4-0.3C109.8,293.9,110.1,293.8,110.4,293.8z M156.7,251.9
		c0,3.2,2.3,6,4.9,5.9c3.6-0.1,6.2-2.4,6.2-5.7c0-3.2-2.5-5.8-5.6-5.8C158.9,246.5,156.7,248.6,156.7,251.9z M150.4,282.2
		c-0.3,0-1,1-0.9,1.5c0.1,0.4,0.9,1,1.4,1.1c0.5,0,1-0.6,1.5-0.9c0-0.2,0-0.5,0-0.7C151.7,282.8,151,282.3,150.4,282.2z
		 M127.6,274.6c0.4,2.1,2.3,3.5,4.5,3.4c2.6-0.1,3.5-1.4,4.2-6.7c2.6,0.9,4.6-0.3,6.5-2c0.6-0.6,1.2-1.2,1.9-1.6
		c0.4-0.3,1-0.5,1.6-0.5c2.8,0.2,4.7-1.7,4.7-4.9c0-2.8-1.9-4.3-4.7-4.3c-0.7,0-1.6-0.5-2.2-1c-0.9-0.8-1.6-2-2.6-2.5
		c-2.5-1.2-7.7-0.4-9.1,1.5c-1.2,1.5-2.3,3.3-2.7,5.1c-0.4,1.7,0.1,3.7,0.3,5.5c0.1,0.4,0.6,0.8,1,1.2c0.4,0.4,1,0.7,1.6,1.1
		C128.2,270.7,127.1,272.1,127.6,274.6z M119.6,285c0.5,0.5,1,1.2,1.5,1.3c1,0.2,2-0.1,1.7-2.2c-0.2-0.1-1-1.1-1.2-1
		C120.8,283.5,120.2,284.3,119.6,285z M118.7,331.7c0.5-0.2,1.1-0.3,1.4-0.6c0.4-0.5,0.5-1.1,0.8-1.7c-0.1-0.1-0.3-0.3-0.4-0.4
		c-0.6,0.4-1.3,0.7-1.7,1.2C118.6,330.5,118.8,331.2,118.7,331.7z M115.4,337c0.2-1,0.4-1.7,0.6-2.6c-1-0.5-1.7-0.9-2.9-1.4
		C114,334.6,114.7,335.7,115.4,337z M120.3,338.5c1.3,0.8,2.4,1.5,3.7,2.3c0-2.3,0-4.3,0-6.3c-0.2,0-0.4-0.1-0.6-0.1
		c-0.5,1.1-1.1,2.3-1.7,3.5c-1.4-1.7-1.8-4.1-4.3-3.9c-0.1,0.2-0.3,0.4-0.4,0.6c0.4,0.5,0.8,1,1.2,1.5c0.8,0.8,1.5,1.5,0.2,2.5
		c-0.2,0.2-0.3,0.6-0.4,0.9c-0.2,1.4-0.3,2.8-2.1,3.3c-0.2,0.1-0.3,0.8-0.5,1.5C119,343.6,119.1,340.6,120.3,338.5z M122.3,349
		c1.8,0.5,3.2,0.9,4.6,1.3c0.2-0.2,0.4-0.3,0.6-0.5c-0.6-1.1-1.2-2.3-1.8-3.5C124.4,347.2,123.4,348,122.3,349z M123.3,350.4
		c-1.3,0.5-2.3,0.8-3.1,1.1c0.9,1.3,1.5,2.2,2.1,3.1c0.2,0,0.4,0.1,0.6,0.1C123,353.5,123.1,352.3,123.3,350.4z M126.4,353.6
		c-0.6-0.2-1.2-0.5-1.9-0.8c0,1,0,1.6,0,2.2c0.2,0.1,0.4,0.3,0.7,0.4C125.5,354.8,125.9,354.2,126.4,353.6z M127,358.3
		c-1.6,2.5-1.5,2.8,0.6,3.4C128.7,359.1,128.7,359.1,127,358.3z M168.2,329.2c-0.1-12.3-9.4-21.3-22-21.3c-12,0-21.6,9.7-21.5,21.5
		c0.1,12.8,10.1,21.2,22.8,21.3C159.1,350.8,168.3,341,168.2,329.2z M176.3,232.7c0-3.4-1-4.3-4.2-4.5c-2.4-0.1-4.3,2.1-4.2,4.4
		c0.1,2.3,1.7,3.9,4,3.9C174.5,236.5,176.3,235,176.3,232.7z M416,107.4l4.5,3.4l3.4-2.1l7.3,5.5l-1.1,3.9l4.7,3.6l5.7-22.2
		l-4.5-3.4L416,107.4z M405.1,101.4l4.8,2.7l8.1-14.4l5.5,3.1l2.2-4l-15.8-8.9l-2.2,4l5.5,3.1L405.1,101.4z M389.9,94.2l5.1,2.2
		l8.3-19.4l-5.1-2.2L389.9,94.2z M364.8,86l5,1.4l3.5-12.1l5.7,14.8l4.6,1.3l5.9-20.3l-4.9-1.4L381,81.9L375.3,67l-4.7-1.4L364.8,86
		z M352.5,84l5.4,0.9l3.3-20.9l-5.4-0.9L352.5,84z M327.2,82.2l5.5,0.2l0.2-5.2l2.8-2.8l5.2,8.4l6.6,0.3l-7.8-12.7l8.2-8.4l-6.4-0.3
		l-8.3,8.8l0.4-9.2l-5.5-0.2L327.2,82.2z M299.1,85.1l5.6-0.7l1-3.9l9.1-1.1l1.9,3.5l5.8-0.7l-11.4-19.9l-5.6,0.7L299.1,85.1z
		 M265.1,73.2l6.3,20.2l4.7-1.5l-4-12.8l8.6,9.1l3.4-1.1l1.8-12.4l4,12.8l4.7-1.5l-6.3-20.2l-5.7,1.8l-2.1,13.6l-9.5-10L265.1,73.2z
		 M231.7,90.2c0.5,0.5,1,1.3,1.5,1.3c0.6-0.1,1.2-0.6,2.2-1.3l3.1,21.4l4.8-3l-0.7-4l7.8-4.8l3.2,2.4l5-3.1L240,85.9l-4.8,3l0.1,0.8
		c-0.9-0.6-1.5-1.2-1.8-1.1C232.7,88.8,232.3,89.6,231.7,90.2z M211.3,106.6l13.5,16.3l11.1-9.2l-3-3.6l-6.9,5.7l-10.5-12.6
		L211.3,106.6z M215.1,129.9c0.8,0.2,1.5,0.4,2.5,0.7c0-0.9,0-1.6,0-2.3C216.2,128,215.1,127.9,215.1,129.9z M199.5,60
		c1,1.8,2.5,2.6,5.3,2.8c-0.5-1.9-0.7-3.4-1.3-4.9c-0.7-1.7-2.1-1.2-3.3-0.7C198.9,57.8,198.9,58.9,199.5,60z M197.5,96.4
		c-0.1,0.5,0.8,1.2,1.3,1.8c0.3,0,0.5,0,0.8-0.1c0.4-0.6,1.1-1.3,1-1.7c-0.2-0.7-1-1.2-1.6-1.8C198.5,95.3,197.6,95.8,197.5,96.4z
		 M270.6,432.4c-0.2-0.5-0.7-0.9-1.1-1.3c-0.3,0.3-1,0.8-1,1c0.3,0.6,0.7,1,1.4,1.8C270.3,433.1,270.7,432.6,270.6,432.4z
		 M284.1,415.4c-0.2-0.3-0.3-0.6-0.5-0.9c-0.9,0.2-1.8,0.5-2.8,0.7c0.4,0.7,0.8,1.4,1.3,2.1C282.8,416.7,283.4,416,284.1,415.4z
		 M333.3,450.3c-0.4-0.3-0.7-0.9-1.1-0.9c-0.4,0-1.1,0.5-1.1,0.8c0,0.4,0.5,0.8,1,1.5C332.6,451.1,333,450.7,333.3,450.3z
		 M343.4,428.4c-0.4-0.3-0.7-0.7-1.3-1.2c-0.6,0.6-1.1,1-1.6,1.4c0.5,0.4,1,1.3,1.4,1.2C342.5,429.6,343,428.9,343.4,428.4z
		 M415.1,363c-1.3,1.8-1.4,3.2-0.3,3.8c0.3,0.2,1.1-0.1,1.3-0.4C417.2,364.9,417,364.1,415.1,363z M437.9,353.2
		c1.9-0.8,3.1-1.8,3.4-4.1c-1.3-0.3-2.6-0.6-4.2-1C437.4,350.1,437.7,351.6,437.9,353.2z M444.7,370.3c-1.1-1.1-2.1-2-3.5-1.4
		c-0.7,0.3-1.2,1.2-1.7,1.9C441.5,371.5,443.2,372.3,444.7,370.3z M443.2,353.5c-0.2,0.2-0.4,0.3-0.5,0.5c0.7,0.8,1.5,1.7,2.2,2.5
		C445.4,354.5,444.5,353.9,443.2,353.5z M445.2,345.8c1.1-0.2,1.9-0.2,2.7-0.4c2.9-0.7,3.7-2.2,2.6-4.8c-0.7-1.6-2.2-1.4-3.5-1.4
		c-1.3,0-2,0.8-2,2.1C445,342.7,445.1,344.1,445.2,345.8z M447.2,353.2c1.3,0.5,3.9-2.4,3.5-3.9c-0.2-0.8-1.6-1.2-2.4-1.8
		c-1.7,0.5-3.2,0.8-3,2.6C445.5,351.3,446.3,352.9,447.2,353.2z M454.4,352.9c-0.7-0.7-1.4-0.8-2.4-0.2c-2.4,1.5-3.7,3.3-2.5,6.2
		c0.1,0.2,0,0.5-0.1,0.7c-0.8,0.1-1.4,0.3-2.1,0.4c0,0.2,0,0.4,0,0.6c2.1,0.3,4.2,0.6,6.3,0.9c0.2,0,0.3-0.1,0.5-0.3
		C455.8,359.8,456,354.5,454.4,352.9z M469.3,360.5c-0.2-0.5-0.5-0.9-1-1.7c-0.7,1.1-1.2,1.6-1.3,2.1c-0.1,1.1,0.1,2.2,0.2,3.2
		c0.5-0.1,1.2,0,1.5-0.3C469.9,362.9,469.9,361.7,469.3,360.5z M471.6,350.8c-2.5,2.5-2.8,3.4-1.7,4.5c1,0.9,2.8,0.9,3.5-0.1
		C474.4,354.1,473.6,352.2,471.6,350.8z M475,331.8c-1.5-0.4-2.2,0.4-2.9,3.8c2.2,0.4,4.3,0.9,6.4,1.3
		C479.2,334.4,478.1,332.7,475,331.8z M487.7,330.6c-2,0-3.5,0-5.6,0c1.8,2-0.3,5,3.1,6.4C486,334.9,486.8,332.9,487.7,330.6z
		 M494.7,309.1c1.9-0.4,3.9-1.4,5.9-2c0.6-0.2,1-1.3,1.5-2c-0.8-0.1-1.5-0.4-2.3-0.2c-4.5,0.7-8.9,1.6-13.4,2.2
		c-2.4,0.3-2.8-0.1-3.2-2.6c-0.4-1.9-1.9-2.8-3.7-2.3c-0.6,0.2-1.2,0.4-1.8,0.5c-0.2-0.7-0.3-1.3-0.6-1.7c-1.7-2.3-2.8-4.4,0-6.7
		c0.3-0.3,0.3-1.4,0-2c-0.1-0.3-1.2-0.3-1.7-0.2c-2.8,0.7-3.8,2.5-3.1,5.3c0.2,0.8,0.3,1.7,0.6,2.5c0.6,2-0.6,3.8-3.3,2.6
		c0.2-0.6,0.5-1.3,0.6-1.9c0.1-0.7,0.2-1.7-0.2-2.2c-1.7-2.2-1.6-4.4-0.7-6.8c6.8-17.5,9.8-35.6,9.3-54.3
		c-0.4-15.5-2.7-30.6-7.7-45.3c-7.7-22.9-20.7-42.3-38.2-58.8c-33.7-31.8-73.7-44.9-119.6-39.4c-23.1,2.7-44.2,11-63.4,24.1
		c-23.7,16.2-42,37-53.6,63.4c-7.4,16.8-11.3,34.3-11.6,52.7c0,3.1,0,6.1,0,9.2c0,8.9,0.8,17.8,2.6,26.5
		c6.3,29.5,20.4,54.8,42.2,75.7c25.8,24.7,56.3,39.2,92.3,41.2c22.3,1.3,43.9-1.8,64.7-10.1c18.2-7.2,34.5-17.3,47.9-31.8
		c1.4-1.5,3.1-2.6,4.6-3.9c0.2,0.1,0.4,0.3,0.6,0.4c-0.2,0.7-0.2,1.5-0.5,2.2c-0.5,1.4,0.4,1.6,1.3,1.7c1.2,0.1,3-2,2.6-3.2
		c-1-2.7-0.2-5.1,1.2-7.4c1.1-1.7,2.1-3.2,4.6-2.1c1,0.5,2.4,0.2,3.7,0.2c1.4,0,2.7,0,4.1,0.1c1.3,0.1,2.3,0.7,2.8,2.4
		c-1.2-0.1-2.2-0.2-3.2-0.3c-1-0.1-2.1-0.4-3.1-0.2c-0.8,0.1-1.4,0.9-2.1,1.4c0.6,0.6,1,1.5,1.7,1.8c0.8,0.3,1.7,0.2,2.2,0.3
		c1.3,1.3,2.3,2.5,3.6,3.4c1,0.7,2.3,0.5,2.3-1.1c0-1.6-0.2-3.2-0.3-4.7c0-0.5-0.2-1-0.1-1.4c0.6-1.2,1.4-2.3,2.1-3.5
		c0.7-1.2,1.7-1.9,3.1-1.7c0.2,7.3,0.2,7.3,2.9,7c0.1-0.4,0.2-0.9,0.4-1.3c1.3-1.6,2.5-3.4,4.1-4.8c0.5-0.4,2.1,0.3,3.1,0.6
		c0.3,0.1,0.7,0.2,1,0.1c0.8-0.2,1.8-0.2,2.2-0.7c0.3-0.4,0.1-1.7-0.3-2.1c-0.5-0.4-1.5-0.5-2.2-0.4c-1.2,0.2-2.4,0.7-3.8,1.1
		c-0.3-0.9-0.5-1.6-0.7-2.1c2.3-1.2,4.4-2.3,6.5-3.4c1.7-0.8,3.2-0.8,4.4,0.9c0.6,0.8,1.5,1.2,2.4,1.9c1.4-2.1,1-4,0.6-5.9
		c-0.3-1.5-0.7-3.1-0.4-4.6c0.3-1.5,0.7-2.8-0.6-4.1c-0.2-0.2,0-0.9,0-1.4c0.5,0.1,1.1,0,1.5,0.3c0.4,0.3,0.6,0.8,0.9,1.2
		c0.6,0.9,1.3,1.1,2.3,0.4C491.2,310.6,492.6,309.6,494.7,309.1z M477.1,279.3c2.3,1.6,3.3,1.4,3.8-0.8
		C478.3,277,478,277.1,477.1,279.3z M482.1,285.6c0.8-0.2,1.5-0.7,2.7-1.4c-1-0.6-1.6-1.2-2-1.1c-0.7,0.3-1.2,1-1.7,1.5
		C481.5,285,481.9,285.7,482.1,285.6z M501.3,337.7c-0.5,0.1-0.8,1.2-1.4,2.1c1.5,0.3,2.5,0.6,3.4,0.7c0.5,0,1.4-0.3,1.5-0.7
		c0.1-0.5-0.2-1.5-0.5-1.7C503.3,337.7,502.2,337.5,501.3,337.7z M520.6,116.9c-0.1-12.1-11.1-22.6-23.5-22.7
		c-15.8-0.1-22.9,13.3-23,23.2c-0.1,12.9,10.3,22.6,23.8,22.5C510.4,139.8,520.7,129.4,520.6,116.9z M524,71.1
		c-1.1-0.8-1.7-1.5-2.5-1.7c-0.3-0.1-1.3,0.9-1.3,1.3c0,0.6,0.7,1.5,1.2,1.6C522,72.4,522.7,71.7,524,71.1z M539,91.5
		c-2.6-1.1-6,0.9-6.6,3.9c-0.4,2.3,0.4,3.3,2.7,3.3c2.6,0,4.6-1.7,5.3-4.3C540.8,92.9,540.3,92.1,539,91.5z M557.8,86.2
		c0-2.3-1.3-3.8-3.2-3.8c-2.6,0-4.7,1.8-4.7,4.1c0,2.4,2.1,4.6,4.2,4.5C556,91,557.8,88.8,557.8,86.2z M434.8,102.1l-6.9,4.2
		l4.7,3.5L434.8,102.1z M308.9,68.3l-2,7.8l5.8-0.7L308.9,68.3z M246.8,97.1l-6.4-4.9l1.4,8L246.8,97.1z"/>
</g>
<g id="Layer_2_copy" class="st0">
	<path id="SVGID_x5F_1_x5F_" class="st4" d="M680.5-436.5c177.6-134.5,430.5-99.5,565,78.1s99.5,430.5-78.1,565
		s-430.5,99.5-565-78.1S503-302.1,680.5-436.5z"/>
	<text class="st1">	<textPath  xlink:href="#SVGID_x5F_1_x5F_" startOffset="80.266%">
<tspan  class="st2" style="font-family:'Montserrat-Bold'; font-size:77.3432px; letter-spacing:100;">LA MAKINITA</tspan>	</textPath>
</text>
</g>
</svg>
